<svg width="34" height="15" viewBox="0 0 34 15" fill="none" xmlns="http://www.w3.org/2000/svg">
<path d="M33.1365 5.97981C32.9618 6.34512 32.8714 6.74771 32.8714 7.15493C32.8714 7.56212 32.9618 7.9647 33.1365 8.32999C33.4816 9.05795 33.5851 9.89229 33.4277 10.6941L33.4277 10.6941L33.4263 10.7015C33.3033 11.3818 32.9954 12.0042 32.5456 12.4919C32.0962 12.9793 31.5258 13.31 30.9081 13.4482L30.9081 13.4482L30.9009 13.4499C30.4087 13.5677 29.8982 13.5634 29.4077 13.4372C28.9172 13.3109 28.4576 13.0655 28.0653 12.7171L28.0654 12.717L28.0565 12.7094C26.8458 11.6841 25.333 11.137 23.7778 11.1692H10.2222C8.66696 11.137 7.15416 11.6841 5.94355 12.7094L5.94346 12.7093L5.93467 12.7171C5.54239 13.0655 5.08284 13.3109 4.59227 13.4372C4.10183 13.5634 3.59127 13.5677 3.09912 13.4499L3.09914 13.4498L3.09185 13.4482C2.47421 13.31 1.90384 12.9793 1.45438 12.4919C1.0046 12.0042 0.69666 11.3818 0.573674 10.7015L0.573729 10.7015L0.572285 10.6941C0.414882 9.89227 0.518407 9.0579 0.863545 8.32992C1.03826 7.96464 1.12863 7.56209 1.12863 7.15493C1.12863 6.74745 1.03811 6.34458 0.863126 5.97907L0.412146 6.19498L0.863695 5.98027C0.517693 5.25262 0.414044 4.418 0.572197 3.61619L0.572262 3.61621L0.573705 3.6082C0.696329 2.92849 1.00414 2.30679 1.45385 1.82002C1.90324 1.3336 2.47351 1.0041 3.09073 0.867494L3.09075 0.867566L3.09912 0.865561C3.59127 0.747714 4.10183 0.752038 4.59227 0.878262C5.08284 1.00452 5.54239 1.24999 5.93467 1.59836L5.93457 1.59848L5.94394 1.6064C7.15509 2.62995 8.66795 3.17502 10.2226 3.14065H23.7774C25.332 3.17502 26.8449 2.62995 28.0561 1.6064L28.0562 1.60651L28.0653 1.59836C28.4576 1.24999 28.9172 1.00452 29.4077 0.878262C29.8982 0.752038 30.4087 0.747714 30.9009 0.865561L30.9009 0.865633L30.9093 0.867494C31.5265 1.0041 32.0968 1.33359 32.5462 1.82002C32.9959 2.30679 33.3037 2.92849 33.4263 3.6082L33.4262 3.60821L33.4278 3.61619C33.5859 4.41783 33.4823 5.25228 33.1365 5.97981ZM33.1365 5.97981C33.1366 5.97957 33.1368 5.97932 33.1369 5.97907L33.5879 6.19498L33.1363 5.98026C33.1364 5.98011 33.1364 5.97996 33.1365 5.97981Z" fill="#DDCA69" stroke="#DDCA69"/>
</svg>
